<svg xmlns="http://www.w3.org/2000/svg" width="48" height="48" viewBox="0 0 48 48"><path fill-rule="evenodd" d="M 24 0 A 24 24 0 0 0 0 24 A 24 24 0 0 0 24 48 A 24 24 0 0 0 48 24 A 24 24 0 0 0 24 0 z M 24.166016 10.990234 A 0.50005 0.50005 0 0 1 24.216797 10.992188 A 0.50005 0.50005 0 0 1 24.25 10.994141 A 0.50005 0.50005 0 0 1 24.265625 10.996094 A 0.50005 0.50005 0 0 1 24.298828 11.005859 A 0.50005 0.50005 0 0 1 24.314453 11.009766 A 0.50005 0.50005 0 0 1 24.359375 11.021484 A 0.50005 0.50005 0 0 1 24.363281 11.023438 A 0.50005 0.50005 0 0 1 24.394531 11.037109 L 35.960938 15.982422 A 0.50005 0.50005 0 0 1 36.375 16.480469 L 36.375 31.482422 A 0.50005 0.50005 0 0 1 36.375 31.490234 A 0.50005 0.50005 0 0 1 36.375 31.515625 A 0.50005 0.50005 0 0 1 36.373047 31.539062 A 0.50005 0.50005 0 0 1 36.369141 31.566406 A 0.50005 0.50005 0 0 1 36.0625 31.960938 L 24.46875 36.917969 A 0.50005 0.50005 0 0 1 24.222656 36.998047 A 0.50005 0.50005 0 0 1 23.880859 36.90625 L 12.314453 31.960938 A 0.50005 0.50005 0 0 1 12.058594 31.722656 A 0.50005 0.50005 0 0 1 12.044922 31.695312 A 0.50005 0.50005 0 0 1 12.042969 31.689453 A 0.50005 0.50005 0 0 1 12 31.482422 L 12 16.480469 A 0.50005 0.50005 0 0 1 12.421875 15.980469 L 23.980469 11.037109 A 0.50005 0.50005 0 0 1 24.150391 10.994141 A 0.50005 0.50005 0 0 1 24.160156 10.994141 A 0.50005 0.50005 0 0 1 24.166016 10.992188 L 24.166016 10.990234 z M 24.1875 12.037109 L 13.767578 16.492188 L 16.220703 17.541016 A 0.50009756 0.50009756 0 0 1 16.25 17.527344 L 26.638672 13.083984 L 24.1875 12.037109 z M 27.910156 13.628906 L 17 18.294922 L 17 24.185547 L 18.277344 23.546875 A 0.50005 0.50005 0 0 1 18.916016 23.716797 L 20 25.34375 L 20 19.994141 A 0.50005 0.50005 0 0 1 20.001953 19.935547 A 0.50009296 0.50009296 0 0 1 20.302734 19.425781 L 30.884766 14.900391 L 27.910156 13.628906 z M 32.15625 15.443359 A 0.50005 0.50005 0 0 1 32.126953 15.457031 L 21.736328 19.900391 L 24.1875 20.947266 L 34.609375 16.492188 L 32.15625 15.443359 z M 13 17.25 L 13 31.164062 L 23.6875 35.734375 L 23.6875 21.820312 L 21 20.671875 L 21 26.933594 A 0.50005 0.50005 0 0 1 20.654297 27.474609 A 0.50005 0.50005 0 0 1 20.636719 27.478516 A 0.50005 0.50005 0 0 1 20.607422 27.488281 A 0.50005 0.50005 0 0 1 20.556641 27.498047 A 0.50005 0.50005 0 0 1 20.507812 27.5 A 0.50005 0.50005 0 0 1 20.457031 27.498047 A 0.50005 0.50005 0 0 1 20.359375 27.480469 A 0.50005 0.50005 0 0 0 20.357422 27.478516 A 0.50005 0.50005 0 0 1 20.3125 27.462891 A 0.50005 0.50005 0 0 1 20.056641 27.230469 L 18.328125 24.638672 L 16.724609 25.441406 A 0.50005 0.50005 0 0 1 16 24.994141 L 16 18.533203 L 13 17.25 z M 35.375 17.251953 L 24.6875 21.822266 L 24.6875 35.738281 L 35.375 31.166016 L 35.375 17.251953 z M 29.109375 28.742188 A 0.50005 0.50005 0 0 1 29.308594 29.708984 L 26.390625 30.955078 A 0.50009348 0.50009348 0 0 1 25.998047 30.035156 L 28.914062 28.789062 A 0.50005 0.50005 0 0 1 29.09375 28.746094 A 0.50005 0.50005 0 0 1 29.099609 28.744141 A 0.50005 0.50005 0 0 1 29.109375 28.742188 z M 32.009766 29.494141 A 0.50005 0.50005 0 0 1 32.224609 30.455078 L 29.308594 31.703125 L 26.390625 32.951172 A 0.50009348 0.50009348 0 0 1 25.998047 32.03125 L 28.914062 30.783203 L 31.832031 29.537109 A 0.50005 0.50005 0 0 1 32.009766 29.494141 z "/></svg>